Coordinates
version=1
nRows=8
nColumns=36
inDegrees=yes

Units are S.I. units (second, meters, Newtons, ...)
If the header above contains a line with 'inDegrees', this indicates whether rotational values are in degrees (yes) or radians (no).

endheader
time	pelvis_tilt	pelvis_list	pelvis_rotation	pelvis_tx	pelvis_ty	pelvis_tz	hip_flexion_r	hip_adduction_r	hip_rotation_r	knee_angle_r	knee_angle_r_beta	ankle_angle_r	subtalar_angle_r	mtp_angle_r	hip_flexion_l	hip_adduction_l	hip_rotation_l	knee_angle_l	knee_angle_l_beta	ankle_angle_l	subtalar_angle_l	mtp_angle_l	lumbar_extension	lumbar_bending	lumbar_rotation	arm_flex_r	arm_add_r	arm_rot_r	elbow_flex_r	pro_sup_r	arm_flex_l	arm_add_l	arm_rot_l	elbow_flex_l	pro_sup_l
      1.32000000	    -10.84791006	     -1.75638320	      2.74361892	      0.33114800	      1.03468328	     -0.07557276	     10.98964995	     -3.02093179	    -14.39943018	      4.91353742	      0.08575741	    -25.28325961	     -4.22071036	     -7.49999987	     15.81365781	     -7.00402686	      0.81112336	      7.26273864	      0.12675870	    -25.16262052	      2.08480724	     -7.49999987	     -2.28170496	      0.77258135	     -1.48469951	    -43.20892412	    -68.49533933	    -82.32210683	     98.16312096	     83.07674076	    -51.95678680	    -71.55749391	    -92.27240699	    145.40128227	     69.79413334
      1.32166670	    -11.00470645	     -1.82431797	      2.95985700	      0.33601013	      1.04855510	     -0.07943143	     10.52065796	     -2.99168165	    -14.97348555	      3.39775452	      0.05930200	    -27.62436830	     -3.36239453	     -7.49999987	     15.32297075	     -6.82067333	      0.95502790	      5.58638197	      0.09750076	    -27.52821293	      1.94829824	     -7.49999987	     -2.16348932	      0.66571902	     -2.56693652	    -41.69324542	    -68.72264116	    -80.86852274	     97.01711914	     82.56633797	    -61.25737154	    -68.87550766	   -101.77787899	    145.83830517	     69.04878639
      1.32333330	    -11.19885686	     -1.93523424	      3.05208293	      0.33913532	      1.06091644	     -0.07724020	     10.17587626	     -2.80301788	    -15.51227055	      2.10059406	      0.03666228	    -29.51919274	     -2.71598128	     -7.49999987	     14.83039767	     -6.71207189	      0.96804056	      4.08953147	      0.07137579	    -29.47338231	      1.68058116	     -7.49999987	     -1.80724702	      0.75054770	     -2.39405729	    -43.26195141	    -67.86182840	    -82.59763211	     96.13662137	     80.90333433	    -63.42634115	    -67.97299774	   -102.99313823	    145.33325489	     68.30087738
      1.32500000	    -11.34859302	     -1.94434616	      3.12102171	      0.33882541	      1.07902416	     -0.07831310	      9.90668119	     -2.76838286	    -16.01096994	      1.13753336	      0.01985370	    -30.54851407	     -1.83505014	     -7.49999987	     14.41877843	     -6.42756456	      0.77841168	      3.03030766	      0.05288885	    -31.02757044	      1.73657293	     -7.49999987	     -1.50220768	      0.62307780	     -2.02975372	    -43.85970269	    -66.58283266	    -83.36851485	     95.48784304	     80.20889861	    -64.62052950	    -67.59673761	   -103.22564747	    144.80922081	     68.03613218
      1.32666670	    -11.57175265	     -2.02136808	      3.06394150	      0.34022964	      1.08772058	     -0.07977991	      9.95151830	     -2.70446847	    -16.27746841	      0.72221900	      0.01260510	    -31.28566170	     -1.41676558	     -7.49999987	     14.17173635	     -6.16521243	      0.76077624	      2.39429468	      0.04178833	    -31.80996989	      1.61152719	     -7.49999987	     -1.13970523	      0.58718615	     -1.49331092	    -45.22793535	    -65.69607148	    -84.63659980	     94.33179756	     78.94720939	    -66.04595764	    -67.78448530	   -103.49168310	    143.79759605	     67.66998740
      1.32833330	    -11.69056222	     -2.11309994	      2.87135259	      0.34108131	      1.09589634	     -0.07747231	      9.97206092	     -2.53912558	    -16.69850600	      0.53760093	      0.00938291	    -31.72883786	     -1.23319704	     -7.49999987	     13.80275697	     -6.02087429	      0.66584459	      1.91499651	      0.03342299	    -32.02641094	      1.69120129	     -7.49999987	     -0.84166868	      0.53811631	     -0.83608253	    -45.82145187	    -64.99245057	    -85.29571356	     93.00677377	     78.58938538	    -66.58942503	    -68.01340454	   -103.15818950	    142.62505473	     67.78894539
      1.33000000	    -11.85420572	     -2.21256304	      2.67020010	      0.33947753	      1.10769320	     -0.07502942	     10.14210191	     -2.32930427	    -16.68706081	      0.45799876	      0.00799359	    -32.23402090	     -1.15154418	     -7.49999987	     13.64005945	     -5.89716145	      0.52457855	      1.65816207	      0.02894039	    -32.13453714	      1.74270911	     -7.49999987	     -0.55691405	      0.35839959	     -0.10911277	    -46.04508556	    -64.10252184	    -85.50165779	     91.66138458	     77.89701788	    -67.24738751	    -68.97859935	   -102.94250006	    140.75345420	     67.71659358
      1.33166670	    -11.97712557	     -2.29514727	      2.66158418	      0.33981335	      1.11902071	     -0.07748765	     10.13650232	     -2.16951581	    -16.95389517	      0.43423974	      0.00757891	    -32.94099379	     -0.60202645	     -7.49999987	     13.52059143	     -5.68857547	      0.54470247	      1.51830538	      0.02649943	    -32.43460757	      1.88050642	     -7.49999987	     -0.37375850	      0.19518194	      0.45706564	    -46.19508802	    -63.36679419	    -85.95920137	     89.82360647	     77.78238990	    -68.10509441	    -69.71395628	   -102.93916303	    139.00536319	     67.77658984
